<svg width="53" height="36" viewBox="0 0 53 36" fill="none" xmlns="http://www.w3.org/2000/svg">
<path d="M52.0261 14.2803C51.6975 13.7325 48.4534 12.3312 48.4534 12.3312C49.0177 12.0398 49.4033 11.9796 49.4033 10.7744C49.4033 9.45973 49.3967 9.02149 48.5203 9.02149H45.5469C45.5348 8.9952 45.5217 8.96781 45.5096 8.94042C43.5902 4.74872 43.3327 3.68929 40.4699 2.26285C36.6299 0.353247 29.4308 0.256836 26.6086 0.256836C23.7864 0.256836 16.5873 0.353247 12.7506 2.26285C9.88456 3.6871 9.95578 4.42005 7.71097 8.94042C7.71097 8.95247 7.68797 8.98424 7.66715 9.02149H4.69045C3.82056 9.02149 3.81399 9.45973 3.81399 10.7744C3.81399 11.9796 4.19963 12.0398 4.76386 12.3312C4.76386 12.3312 1.6294 13.8421 1.19116 14.2803C0.75293 14.7185 0.314697 17.7861 0.314697 23.0449C0.314697 28.3037 0.75293 33.5625 0.75293 33.5625H2.06106C2.06106 35.0964 2.28675 35.3155 2.94409 35.3155H11.7087C12.3661 35.3155 12.5852 35.0964 12.5852 33.5625H40.6321C40.6321 35.0964 40.8512 35.3155 41.5085 35.3155H50.4923C50.9306 35.3155 51.1497 34.9868 51.1497 33.5625H52.4644C52.4644 33.5625 52.9026 28.1942 52.9026 23.0449C52.9026 17.8957 52.3548 14.8281 52.0261 14.2803ZM12.285 19.2038C10.2897 19.422 8.2841 19.5339 6.27686 19.5391C4.03968 19.5391 3.96299 19.6826 3.80522 18.2857C3.74587 17.6464 3.76464 17.0022 3.8611 16.3674L3.93012 16.0332H4.25879C5.57349 16.0332 6.80821 16.0891 9.13961 16.776C10.3254 17.1319 11.4407 17.6901 12.4362 18.426C12.9138 18.7722 13.0234 19.1008 13.0234 19.1008L12.285 19.2038ZM39.3634 27.092L38.8792 28.3037H14.3381C14.3381 28.3037 14.3808 28.2369 13.7903 27.0789C13.3521 26.2221 13.8999 25.6743 14.7665 25.3632C16.4449 24.7584 21.3498 23.0449 26.6086 23.0449C31.8674 23.0449 36.8699 24.5218 38.4957 25.3632C39.0983 25.6743 39.8465 25.8935 39.3634 27.0986V27.092ZM11.2069 12.134C10.8531 12.1544 10.4984 12.1571 10.1442 12.1417C10.4302 11.6334 10.589 11.0669 10.8684 10.4753C11.7449 8.61284 12.7473 6.50494 14.532 5.61642C17.111 4.3324 22.4564 3.75393 26.6086 3.75393C30.7609 3.75393 36.1062 4.32802 38.6852 5.61642C40.4699 6.50494 41.468 8.61394 42.3489 10.4753C42.6304 11.0724 42.7871 11.6432 43.0807 12.1549C42.8616 12.1669 42.6096 12.1549 42.0081 12.134H11.2069ZM49.3025 18.2814C49.0681 19.6486 49.2872 19.5391 46.9404 19.5391C44.9332 19.5339 42.9277 19.422 40.9323 19.2038C40.62 19.148 40.5313 18.621 40.7811 18.426C41.7716 17.6819 42.8884 17.1229 44.0777 16.776C46.4091 16.0891 47.7216 15.9971 49.0177 16.0431C49.1048 16.0464 49.1875 16.0819 49.25 16.1424C49.3125 16.2031 49.3504 16.2849 49.3562 16.3718C49.4182 17.0095 49.4001 17.6525 49.3025 18.2857V18.2814Z" fill="#118A94"/>
</svg>
